<mxfile host="Electron" agent="Mozilla/5.0 (Windows NT 10.0; Win64; x64) AppleWebKit/537.36 (KHTML, like Gecko) draw.io/25.0.1 Chrome/128.0.6613.186 Electron/32.2.6 Safari/537.36" version="25.0.1">
  <diagram name="Página-1" id="s3OMrO0p6jmiYu_DmSFK">
    <mxGraphModel dx="3987" dy="3718" grid="1" gridSize="10" guides="1" tooltips="1" connect="1" arrows="1" fold="1" page="1" pageScale="1" pageWidth="827" pageHeight="1169" math="0" shadow="0">
      <root>
        <mxCell id="0" />
        <mxCell id="1" parent="0" />
        <mxCell id="gdCvDjqRngSQcII96v-0-36" style="edgeStyle=orthogonalEdgeStyle;rounded=0;orthogonalLoop=1;jettySize=auto;html=1;" parent="1" source="3x31MsnCpi4qH06DEA2G-2" target="3x31MsnCpi4qH06DEA2G-37" edge="1">
          <mxGeometry relative="1" as="geometry">
            <Array as="points">
              <mxPoint x="-484" y="-1119" />
            </Array>
          </mxGeometry>
        </mxCell>
        <mxCell id="3x31MsnCpi4qH06DEA2G-2" value="" style="rounded=0;whiteSpace=wrap;html=1;" parent="1" vertex="1">
          <mxGeometry x="-750" y="-1160" width="232.5" height="81.5" as="geometry" />
        </mxCell>
        <mxCell id="3x31MsnCpi4qH06DEA2G-3" value="&lt;span style=&quot;font-size: 14px;&quot;&gt;&lt;b&gt;IDS_SNORT&lt;/b&gt;&lt;/span&gt;" style="text;html=1;align=center;verticalAlign=middle;whiteSpace=wrap;rounded=0;fontFamily=Helvetica;fontSize=26;fontColor=default;" parent="1" vertex="1">
          <mxGeometry x="-692.94" y="-1160" width="118.38" height="20" as="geometry" />
        </mxCell>
        <mxCell id="3x31MsnCpi4qH06DEA2G-4" value="&lt;span style=&quot;font-weight: normal;&quot;&gt;&lt;font size=&quot;1&quot; style=&quot;&quot;&gt;&lt;i style=&quot;font-size: 14px;&quot;&gt;Analiza el número de paquetes del tráfico sospechoso que ingresan a los conmutadores&lt;/i&gt;&lt;/font&gt;&lt;/span&gt;" style="text;whiteSpace=wrap;html=1;align=center;fontStyle=1;fontSize=10;" parent="1" vertex="1">
          <mxGeometry x="-743.75" y="-1140" width="220" height="50" as="geometry" />
        </mxCell>
        <mxCell id="3x31MsnCpi4qH06DEA2G-40" value="" style="edgeStyle=orthogonalEdgeStyle;rounded=0;orthogonalLoop=1;jettySize=auto;html=1;" parent="1" source="3x31MsnCpi4qH06DEA2G-37" target="3x31MsnCpi4qH06DEA2G-39" edge="1">
          <mxGeometry relative="1" as="geometry" />
        </mxCell>
        <mxCell id="94CjwlbmknySxOoL_Qpq-2" value="" style="edgeStyle=orthogonalEdgeStyle;rounded=0;orthogonalLoop=1;jettySize=auto;html=1;endArrow=none;endFill=0;dashed=1;startArrow=classic;startFill=1;" parent="1" source="3x31MsnCpi4qH06DEA2G-37" target="94CjwlbmknySxOoL_Qpq-1" edge="1">
          <mxGeometry relative="1" as="geometry" />
        </mxCell>
        <mxCell id="3x31MsnCpi4qH06DEA2G-37" value="&lt;p style=&quot;line-height: 90%;&quot;&gt;&lt;b style=&quot;&quot;&gt;&lt;font style=&quot;font-size: 13px;&quot;&gt;Trafico analizado por el IDS&lt;/font&gt;&lt;/b&gt;&lt;/p&gt;" style="text;html=1;align=center;verticalAlign=middle;whiteSpace=wrap;rounded=0;fontFamily=Helvetica;fontSize=26;fillColor=none;strokeColor=default;" parent="1" vertex="1">
          <mxGeometry x="-577.1999999999999" y="-1062" width="186.78" height="30" as="geometry" />
        </mxCell>
        <mxCell id="3x31MsnCpi4qH06DEA2G-51" style="edgeStyle=orthogonalEdgeStyle;rounded=0;orthogonalLoop=1;jettySize=auto;html=1;entryX=0.5;entryY=0;entryDx=0;entryDy=0;" parent="1" source="3x31MsnCpi4qH06DEA2G-39" target="3x31MsnCpi4qH06DEA2G-44" edge="1">
          <mxGeometry relative="1" as="geometry" />
        </mxCell>
        <mxCell id="3x31MsnCpi4qH06DEA2G-61" style="edgeStyle=orthogonalEdgeStyle;rounded=0;orthogonalLoop=1;jettySize=auto;html=1;entryX=0.5;entryY=0;entryDx=0;entryDy=0;" parent="1" source="3x31MsnCpi4qH06DEA2G-39" target="3x31MsnCpi4qH06DEA2G-58" edge="1">
          <mxGeometry relative="1" as="geometry" />
        </mxCell>
        <mxCell id="3x31MsnCpi4qH06DEA2G-39" value="&lt;font style=&quot;font-size: 12px;&quot;&gt;&lt;span style=&quot;font-family: &amp;quot;Arial Narrow&amp;quot;, sans-serif; text-align: justify; background-color: initial;&quot;&gt;&lt;br&gt;&lt;/span&gt;&lt;/font&gt;&lt;p style=&quot;margin-left:36.0pt;text-align:justify&quot; class=&quot;MsoNormal&quot;&gt;&lt;span style=&quot;font-family:&amp;quot;Arial Narrow&amp;quot;,sans-serif&quot; lang=&quot;ES&quot;&gt;&lt;/span&gt;&lt;/p&gt;" style="rhombus;whiteSpace=wrap;html=1;" parent="1" vertex="1">
          <mxGeometry x="-528.75" y="-1004.5" width="89.89" height="73.5" as="geometry" />
        </mxCell>
        <mxCell id="3x31MsnCpi4qH06DEA2G-42" value="&lt;span style=&quot;text-wrap: wrap;&quot;&gt;n_pakts&amp;nbsp;&lt;/span&gt;&lt;span style=&quot;text-wrap: wrap; background-color: initial; font-family: &amp;quot;Arial Narrow&amp;quot;, sans-serif; text-align: justify;&quot;&gt;≥ Reglas Snort&lt;/span&gt;" style="text;html=1;align=center;verticalAlign=middle;resizable=0;points=[];autosize=1;strokeColor=none;fillColor=none;fontStyle=2" parent="1" vertex="1">
          <mxGeometry x="-553.81" y="-979.75" width="140" height="30" as="geometry" />
        </mxCell>
        <mxCell id="gdCvDjqRngSQcII96v-0-38" style="edgeStyle=orthogonalEdgeStyle;rounded=0;orthogonalLoop=1;jettySize=auto;html=1;" parent="1" source="3x31MsnCpi4qH06DEA2G-44" target="3x31MsnCpi4qH06DEA2G-52" edge="1">
          <mxGeometry relative="1" as="geometry" />
        </mxCell>
        <mxCell id="3x31MsnCpi4qH06DEA2G-44" value="&lt;font&gt;&lt;b style=&quot;&quot;&gt;Alerta Generada&lt;/b&gt;&lt;br&gt;&lt;i style=&quot;&quot;&gt;Ataque DoS Detectado&lt;/i&gt;&lt;/font&gt;" style="rounded=0;whiteSpace=wrap;html=1;" parent="1" vertex="1">
          <mxGeometry x="-433.6" y="-947" width="173.6" height="38.5" as="geometry" />
        </mxCell>
        <mxCell id="3x31MsnCpi4qH06DEA2G-56" value="" style="edgeStyle=orthogonalEdgeStyle;rounded=0;orthogonalLoop=1;jettySize=auto;html=1;" parent="1" source="3x31MsnCpi4qH06DEA2G-52" target="3x31MsnCpi4qH06DEA2G-54" edge="1">
          <mxGeometry relative="1" as="geometry" />
        </mxCell>
        <mxCell id="3x31MsnCpi4qH06DEA2G-52" value="&lt;font&gt;&lt;b style=&quot;&quot;&gt;Extraer Información del Atacante&lt;/b&gt;&lt;br&gt;&lt;i style=&quot;&quot;&gt;IPv4: IP Origen, IP destino&lt;br&gt;MAC: MAC origen, MAC destino&lt;/i&gt;&lt;/font&gt;" style="rounded=0;whiteSpace=wrap;html=1;" parent="1" vertex="1">
          <mxGeometry x="-445.36" y="-888.75" width="198.6" height="58.5" as="geometry" />
        </mxCell>
        <mxCell id="3x31MsnCpi4qH06DEA2G-67" style="edgeStyle=orthogonalEdgeStyle;rounded=0;orthogonalLoop=1;jettySize=auto;html=1;entryX=0.5;entryY=0;entryDx=0;entryDy=0;" parent="1" source="3x31MsnCpi4qH06DEA2G-54" target="3x31MsnCpi4qH06DEA2G-65" edge="1">
          <mxGeometry relative="1" as="geometry">
            <Array as="points">
              <mxPoint x="-360.38" y="-707" />
              <mxPoint x="-483.37999999999994" y="-707" />
            </Array>
          </mxGeometry>
        </mxCell>
        <mxCell id="gdCvDjqRngSQcII96v-0-39" style="edgeStyle=orthogonalEdgeStyle;rounded=0;orthogonalLoop=1;jettySize=auto;html=1;entryX=0;entryY=0.5;entryDx=0;entryDy=0;" parent="1" source="3x31MsnCpi4qH06DEA2G-54" target="uqmx0J0vCGjWTDLTTVXI-3" edge="1">
          <mxGeometry relative="1" as="geometry" />
        </mxCell>
        <mxCell id="3x31MsnCpi4qH06DEA2G-54" value="&lt;font&gt;&lt;b style=&quot;&quot;&gt;Enviar alerta al controlador&lt;/b&gt;&lt;br&gt;Contiene la informacion del atacante obtenida por el IDS&lt;/font&gt;" style="rounded=0;whiteSpace=wrap;html=1;" parent="1" vertex="1">
          <mxGeometry x="-436.56000000000006" y="-797" width="181" height="60" as="geometry" />
        </mxCell>
        <mxCell id="3x31MsnCpi4qH06DEA2G-66" style="edgeStyle=orthogonalEdgeStyle;rounded=0;orthogonalLoop=1;jettySize=auto;html=1;entryX=0.5;entryY=0;entryDx=0;entryDy=0;" parent="1" source="3x31MsnCpi4qH06DEA2G-58" target="3x31MsnCpi4qH06DEA2G-65" edge="1">
          <mxGeometry relative="1" as="geometry">
            <Array as="points">
              <mxPoint x="-617.38" y="-707" />
              <mxPoint x="-483.37999999999994" y="-707" />
            </Array>
          </mxGeometry>
        </mxCell>
        <mxCell id="3x31MsnCpi4qH06DEA2G-58" value="&lt;font&gt;&lt;b style=&quot;&quot;&gt;Trafico Normal&lt;/b&gt;&lt;br&gt;&lt;i style=&quot;&quot;&gt;No genera ninguna alerta&lt;/i&gt;&lt;/font&gt;" style="rounded=0;whiteSpace=wrap;html=1;" parent="1" vertex="1">
          <mxGeometry x="-690.03" y="-878.75" width="146.22" height="38.5" as="geometry" />
        </mxCell>
        <mxCell id="3x31MsnCpi4qH06DEA2G-62" value="&lt;i&gt;si&lt;/i&gt;" style="text;html=1;align=center;verticalAlign=middle;whiteSpace=wrap;rounded=0;" parent="1" vertex="1">
          <mxGeometry x="-407.16" y="-992" width="23.78" height="20" as="geometry" />
        </mxCell>
        <mxCell id="3x31MsnCpi4qH06DEA2G-63" value="&lt;i&gt;no&lt;/i&gt;" style="text;html=1;align=center;verticalAlign=middle;whiteSpace=wrap;rounded=0;" parent="1" vertex="1">
          <mxGeometry x="-583.81" y="-992" width="40" height="20" as="geometry" />
        </mxCell>
        <mxCell id="3x31MsnCpi4qH06DEA2G-71" style="edgeStyle=orthogonalEdgeStyle;rounded=0;orthogonalLoop=1;jettySize=auto;html=1;entryX=0;entryY=0.5;entryDx=0;entryDy=0;" parent="1" source="3x31MsnCpi4qH06DEA2G-65" target="3x31MsnCpi4qH06DEA2G-37" edge="1">
          <mxGeometry relative="1" as="geometry">
            <Array as="points">
              <mxPoint x="-710.03" y="-666" />
              <mxPoint x="-710.03" y="-1047" />
            </Array>
          </mxGeometry>
        </mxCell>
        <mxCell id="3x31MsnCpi4qH06DEA2G-65" value="&lt;b style=&quot;font-size: 11px;&quot;&gt;Snort continua analizando el tráfico&lt;/b&gt;" style="rounded=0;whiteSpace=wrap;html=1;" parent="1" vertex="1">
          <mxGeometry x="-543.8" y="-685" width="120" height="38" as="geometry" />
        </mxCell>
        <mxCell id="3ua0rzF7ZVXCf0AmxjDX-41" style="edgeStyle=orthogonalEdgeStyle;rounded=0;orthogonalLoop=1;jettySize=auto;html=1;entryX=0;entryY=0.5;entryDx=0;entryDy=0;" edge="1" parent="1" source="uqmx0J0vCGjWTDLTTVXI-3" target="3ua0rzF7ZVXCf0AmxjDX-6">
          <mxGeometry relative="1" as="geometry">
            <Array as="points">
              <mxPoint x="-40" y="-767" />
              <mxPoint x="-40" y="-1120" />
            </Array>
          </mxGeometry>
        </mxCell>
        <mxCell id="uqmx0J0vCGjWTDLTTVXI-3" value="" style="rounded=0;whiteSpace=wrap;html=1;" parent="1" vertex="1">
          <mxGeometry x="-231.2" y="-807" width="178.76" height="80" as="geometry" />
        </mxCell>
        <mxCell id="uqmx0J0vCGjWTDLTTVXI-4" value="&lt;span style=&quot;font-size: 14px;&quot;&gt;&lt;b&gt;IDS_SNORT&lt;/b&gt;&lt;/span&gt;" style="text;html=1;align=center;verticalAlign=middle;whiteSpace=wrap;rounded=0;fontFamily=Helvetica;fontSize=26;fontColor=default;" parent="1" vertex="1">
          <mxGeometry x="-201.01" y="-804.25" width="118.38" height="20" as="geometry" />
        </mxCell>
        <mxCell id="uqmx0J0vCGjWTDLTTVXI-5" value="&lt;span style=&quot;font-weight: normal;&quot;&gt;&lt;font size=&quot;1&quot; style=&quot;&quot;&gt;&lt;i style=&quot;font-size: 14px;&quot;&gt;Envia la alerta mediante un socket TCP&amp;nbsp; al puerto 51234 del controlador&lt;/i&gt;&lt;/font&gt;&lt;/span&gt;" style="text;whiteSpace=wrap;html=1;align=center;fontStyle=1;fontSize=10;" parent="1" vertex="1">
          <mxGeometry x="-221.82" y="-787.25" width="160" height="40.5" as="geometry" />
        </mxCell>
        <mxCell id="94CjwlbmknySxOoL_Qpq-1" value="&lt;p style=&quot;line-height: 90%;&quot;&gt;&lt;font style=&quot;font-size: 13px;&quot;&gt;Reglas definidas en el IDS&lt;/font&gt;&lt;/p&gt;" style="text;html=1;align=center;verticalAlign=middle;whiteSpace=wrap;rounded=0;fontFamily=Helvetica;fontSize=26;fillColor=none;strokeColor=default;dashed=1;" parent="1" vertex="1">
          <mxGeometry x="-341.9899999999999" y="-1062" width="186.78" height="30" as="geometry" />
        </mxCell>
        <mxCell id="gdCvDjqRngSQcII96v-0-8" value="" style="edgeStyle=orthogonalEdgeStyle;rounded=0;orthogonalLoop=1;jettySize=auto;html=1;" parent="1" source="gdCvDjqRngSQcII96v-0-3" target="gdCvDjqRngSQcII96v-0-7" edge="1">
          <mxGeometry relative="1" as="geometry" />
        </mxCell>
        <mxCell id="gdCvDjqRngSQcII96v-0-3" value="" style="rounded=0;whiteSpace=wrap;html=1;" parent="1" vertex="1">
          <mxGeometry x="-1220" y="-1170.5" width="310" height="90" as="geometry" />
        </mxCell>
        <mxCell id="gdCvDjqRngSQcII96v-0-4" value="&lt;span style=&quot;font-size: 14px;&quot;&gt;&lt;b&gt;Controlador SDN&lt;/b&gt;&lt;/span&gt;" style="text;html=1;align=center;verticalAlign=middle;whiteSpace=wrap;rounded=0;fontFamily=Helvetica;fontSize=26;fontColor=default;" parent="1" vertex="1">
          <mxGeometry x="-1124.19" y="-1167.5" width="118.38" height="20" as="geometry" />
        </mxCell>
        <mxCell id="gdCvDjqRngSQcII96v-0-6" value="&lt;span style=&quot;font-weight: normal;&quot;&gt;&lt;font size=&quot;1&quot; style=&quot;&quot;&gt;&lt;i style=&quot;font-size: 14px;&quot;&gt;Genera una ventana de un segundo de paquetes que ingresan a la red para identificar patrones de tráfico masivo&amp;nbsp;&lt;/i&gt;&lt;/font&gt;&lt;/span&gt;" style="text;whiteSpace=wrap;html=1;align=center;fontStyle=1;fontSize=10;" parent="1" vertex="1">
          <mxGeometry x="-1210" y="-1147.5" width="290" height="50" as="geometry" />
        </mxCell>
        <mxCell id="gdCvDjqRngSQcII96v-0-20" style="edgeStyle=orthogonalEdgeStyle;rounded=0;orthogonalLoop=1;jettySize=auto;html=1;entryX=0.5;entryY=0;entryDx=0;entryDy=0;" parent="1" source="gdCvDjqRngSQcII96v-0-7" target="gdCvDjqRngSQcII96v-0-13" edge="1">
          <mxGeometry relative="1" as="geometry">
            <Array as="points">
              <mxPoint x="-974" y="-989" />
              <mxPoint x="-907" y="-990" />
            </Array>
          </mxGeometry>
        </mxCell>
        <mxCell id="gdCvDjqRngSQcII96v-0-37" style="edgeStyle=orthogonalEdgeStyle;rounded=0;orthogonalLoop=1;jettySize=auto;html=1;entryX=0.5;entryY=0;entryDx=0;entryDy=0;" parent="1" source="gdCvDjqRngSQcII96v-0-7" target="gdCvDjqRngSQcII96v-0-10" edge="1">
          <mxGeometry relative="1" as="geometry">
            <mxPoint x="-1200" y="-890" as="targetPoint" />
            <Array as="points">
              <mxPoint x="-1198" y="-989" />
            </Array>
          </mxGeometry>
        </mxCell>
        <mxCell id="gdCvDjqRngSQcII96v-0-7" value="&lt;font style=&quot;font-size: 12px;&quot;&gt;&lt;span style=&quot;font-family: &amp;quot;Arial Narrow&amp;quot;, sans-serif; text-align: justify; background-color: initial;&quot;&gt;&lt;br&gt;&lt;/span&gt;&lt;/font&gt;&lt;p style=&quot;margin-left:36.0pt;text-align:justify&quot; class=&quot;MsoNormal&quot;&gt;&lt;span style=&quot;font-family:&amp;quot;Arial Narrow&amp;quot;,sans-serif&quot; lang=&quot;ES&quot;&gt;&lt;/span&gt;&lt;/p&gt;" style="rhombus;whiteSpace=wrap;html=1;" parent="1" vertex="1">
          <mxGeometry x="-1135.53" y="-1050" width="141.05" height="121.25" as="geometry" />
        </mxCell>
        <mxCell id="gdCvDjqRngSQcII96v-0-9" value="&lt;font style=&quot;font-size: 13px;&quot;&gt;&lt;span style=&quot;text-wrap: wrap;&quot;&gt;#_pakts&amp;nbsp;&lt;/span&gt;&lt;span style=&quot;text-wrap: wrap; background-color: initial; font-family: &amp;quot;Arial Narrow&amp;quot;, sans-serif; text-align: justify;&quot;&gt;≥ 1000 pkts &lt;br&gt;ICMP/TCP/UDP&lt;/span&gt;&lt;/font&gt;&lt;div&gt;&lt;span style=&quot;text-wrap: wrap; background-color: initial; font-family: &amp;quot;Arial Narrow&amp;quot;, sans-serif; text-align: justify;&quot;&gt;&lt;font style=&quot;font-size: 13px;&quot;&gt;en 1s&lt;/font&gt;&lt;/span&gt;&lt;/div&gt;" style="text;html=1;align=center;verticalAlign=middle;resizable=0;points=[];autosize=1;strokeColor=none;fillColor=none;fontStyle=2" parent="1" vertex="1">
          <mxGeometry x="-1130.01" y="-1019.38" width="130" height="60" as="geometry" />
        </mxCell>
        <mxCell id="gdCvDjqRngSQcII96v-0-32" style="edgeStyle=orthogonalEdgeStyle;rounded=0;orthogonalLoop=1;jettySize=auto;html=1;entryX=0.5;entryY=0;entryDx=0;entryDy=0;" parent="1" source="gdCvDjqRngSQcII96v-0-10" target="gdCvDjqRngSQcII96v-0-26" edge="1">
          <mxGeometry relative="1" as="geometry">
            <Array as="points">
              <mxPoint x="-1198" y="-700" />
              <mxPoint x="-1065" y="-700" />
            </Array>
          </mxGeometry>
        </mxCell>
        <mxCell id="gdCvDjqRngSQcII96v-0-10" value="&lt;font&gt;&lt;b style=&quot;&quot;&gt;Trafico Normal&lt;/b&gt;&lt;br&gt;&lt;i style=&quot;&quot;&gt;La conmutación continua&lt;/i&gt;&lt;/font&gt;" style="rounded=0;whiteSpace=wrap;html=1;" parent="1" vertex="1">
          <mxGeometry x="-1271.23" y="-882.12" width="146.22" height="38.5" as="geometry" />
        </mxCell>
        <mxCell id="gdCvDjqRngSQcII96v-0-28" value="" style="edgeStyle=orthogonalEdgeStyle;rounded=0;orthogonalLoop=1;jettySize=auto;html=1;" parent="1" source="gdCvDjqRngSQcII96v-0-13" target="gdCvDjqRngSQcII96v-0-22" edge="1">
          <mxGeometry relative="1" as="geometry" />
        </mxCell>
        <mxCell id="gdCvDjqRngSQcII96v-0-13" value="&lt;font&gt;&lt;b style=&quot;&quot;&gt;El tráfico es considerado sospechoso &lt;/b&gt;&lt;i&gt;Necesita ser analizado por el IDS&lt;/i&gt;&lt;/font&gt;" style="rounded=0;whiteSpace=wrap;html=1;" parent="1" vertex="1">
          <mxGeometry x="-1020" y="-959.38" width="230" height="38.5" as="geometry" />
        </mxCell>
        <mxCell id="gdCvDjqRngSQcII96v-0-21" value="&lt;font&gt;&lt;b style=&quot;&quot;&gt;Controlador SDN&lt;br&gt;&lt;/b&gt;&lt;i&gt;Identifica al switch que está siendo atacado y modifica la regla de flujo para redireccionar el tráfico del atacante al puerto conectado con el IDS&lt;/i&gt;&lt;/font&gt;" style="rounded=0;whiteSpace=wrap;html=1;" parent="1" vertex="1">
          <mxGeometry x="-1020" y="-905" width="230" height="80" as="geometry" />
        </mxCell>
        <mxCell id="gdCvDjqRngSQcII96v-0-35" style="edgeStyle=orthogonalEdgeStyle;rounded=0;orthogonalLoop=1;jettySize=auto;html=1;entryX=0;entryY=0.5;entryDx=0;entryDy=0;" parent="1" source="gdCvDjqRngSQcII96v-0-22" target="3x31MsnCpi4qH06DEA2G-2" edge="1">
          <mxGeometry relative="1" as="geometry" />
        </mxCell>
        <mxCell id="gdCvDjqRngSQcII96v-0-22" value="&lt;font&gt;&lt;b style=&quot;&quot;&gt;Conmutador SDN&lt;br&gt;&lt;/b&gt;&lt;i&gt;Obtiene la regla modificada y empieza el redireccionamiento del tráfico del atacante al IDS&lt;/i&gt;&lt;/font&gt;" style="rounded=0;whiteSpace=wrap;html=1;" parent="1" vertex="1">
          <mxGeometry x="-1020" y="-808.5" width="230" height="65.75" as="geometry" />
        </mxCell>
        <mxCell id="gdCvDjqRngSQcII96v-0-26" value="&lt;b&gt;&lt;font style=&quot;font-size: 15px;&quot;&gt;Fin&lt;/font&gt;&lt;/b&gt;" style="ellipse;whiteSpace=wrap;html=1;aspect=fixed;" parent="1" vertex="1">
          <mxGeometry x="-1094.01" y="-647" width="58" height="58" as="geometry" />
        </mxCell>
        <mxCell id="3ua0rzF7ZVXCf0AmxjDX-5" value="" style="edgeStyle=orthogonalEdgeStyle;rounded=0;orthogonalLoop=1;jettySize=auto;html=1;" edge="1" parent="1" source="3ua0rzF7ZVXCf0AmxjDX-6" target="3ua0rzF7ZVXCf0AmxjDX-10">
          <mxGeometry relative="1" as="geometry" />
        </mxCell>
        <mxCell id="3ua0rzF7ZVXCf0AmxjDX-6" value="" style="rounded=0;whiteSpace=wrap;html=1;" vertex="1" parent="1">
          <mxGeometry x="72.79" y="-1160" width="320" height="80" as="geometry" />
        </mxCell>
        <mxCell id="3ua0rzF7ZVXCf0AmxjDX-7" value="&lt;span style=&quot;font-size: 14px;&quot;&gt;&lt;b&gt;Controlador SDN&lt;/b&gt;&lt;/span&gt;" style="text;html=1;align=center;verticalAlign=middle;whiteSpace=wrap;rounded=0;fontFamily=Helvetica;fontSize=26;fontColor=default;" vertex="1" parent="1">
          <mxGeometry x="173.59999999999994" y="-1156" width="118.38" height="20" as="geometry" />
        </mxCell>
        <mxCell id="3ua0rzF7ZVXCf0AmxjDX-8" value="&lt;span style=&quot;font-size: 14px; font-weight: 400;&quot;&gt;&lt;i&gt;Recibe la alerta generada por SNORT&amp;nbsp; con la información del atacante e inicia la mitigación&lt;/i&gt;&lt;/span&gt;" style="text;whiteSpace=wrap;html=1;align=center;fontStyle=1;fontSize=10;" vertex="1" parent="1">
          <mxGeometry x="82.78000000000002" y="-1136" width="300" height="50" as="geometry" />
        </mxCell>
        <mxCell id="3ua0rzF7ZVXCf0AmxjDX-9" value="" style="edgeStyle=orthogonalEdgeStyle;rounded=0;orthogonalLoop=1;jettySize=auto;html=1;" edge="1" parent="1" source="3ua0rzF7ZVXCf0AmxjDX-10">
          <mxGeometry relative="1" as="geometry">
            <mxPoint x="232.8" y="-909.7499999999999" as="targetPoint" />
          </mxGeometry>
        </mxCell>
        <mxCell id="3ua0rzF7ZVXCf0AmxjDX-10" value="" style="rounded=0;whiteSpace=wrap;html=1;" vertex="1" parent="1">
          <mxGeometry x="92.79999999999998" y="-1049.75" width="280" height="100" as="geometry" />
        </mxCell>
        <mxCell id="3ua0rzF7ZVXCf0AmxjDX-11" value="&lt;span style=&quot;font-size: 14px;&quot;&gt;&lt;b&gt;Extracción de información del atacante&lt;/b&gt;&lt;/span&gt;" style="text;html=1;align=center;verticalAlign=middle;whiteSpace=wrap;rounded=0;fontFamily=Helvetica;fontSize=26;fontColor=default;" vertex="1" parent="1">
          <mxGeometry x="98.00000000000003" y="-1045.75" width="269.59" height="20" as="geometry" />
        </mxCell>
        <mxCell id="3ua0rzF7ZVXCf0AmxjDX-12" value="&lt;span style=&quot;font-size: 14px; font-weight: 400;&quot;&gt;&lt;i&gt;De la alerta recibida el controlador obtiene:&amp;nbsp;&lt;/i&gt;&lt;/span&gt;" style="text;whiteSpace=wrap;html=1;align=center;fontStyle=1;fontSize=10;" vertex="1" parent="1">
          <mxGeometry x="93.4" y="-1021.75" width="282.79" height="36" as="geometry" />
        </mxCell>
        <mxCell id="3ua0rzF7ZVXCf0AmxjDX-13" value="&lt;span style=&quot;font-size: 14px; font-weight: 400;&quot;&gt;&lt;i&gt;IP Origen - MAC Origen&lt;/i&gt;&lt;/span&gt;" style="text;whiteSpace=wrap;html=1;align=center;fontStyle=1;fontSize=10;rounded=1;strokeColor=default;" vertex="1" parent="1">
          <mxGeometry x="151.4" y="-989.75" width="162.79" height="30" as="geometry" />
        </mxCell>
        <mxCell id="3ua0rzF7ZVXCf0AmxjDX-14" value="" style="edgeStyle=orthogonalEdgeStyle;rounded=0;orthogonalLoop=1;jettySize=auto;html=1;" edge="1" parent="1" source="3ua0rzF7ZVXCf0AmxjDX-16" target="3ua0rzF7ZVXCf0AmxjDX-20">
          <mxGeometry relative="1" as="geometry" />
        </mxCell>
        <mxCell id="3ua0rzF7ZVXCf0AmxjDX-15" style="edgeStyle=orthogonalEdgeStyle;rounded=0;orthogonalLoop=1;jettySize=auto;html=1;entryX=0;entryY=0.5;entryDx=0;entryDy=0;" edge="1" parent="1" source="3ua0rzF7ZVXCf0AmxjDX-16" target="3ua0rzF7ZVXCf0AmxjDX-33">
          <mxGeometry relative="1" as="geometry" />
        </mxCell>
        <mxCell id="3ua0rzF7ZVXCf0AmxjDX-16" value="" style="shape=hexagon;perimeter=hexagonPerimeter2;whiteSpace=wrap;html=1;fixedSize=1;align=left;" vertex="1" parent="1">
          <mxGeometry x="100.29999999999998" y="-911.75" width="264.99" height="90" as="geometry" />
        </mxCell>
        <mxCell id="3ua0rzF7ZVXCf0AmxjDX-17" value="&lt;span style=&quot;font-size: 14px; font-weight: 400; line-height: 130%;&quot;&gt;&lt;i&gt;Desde: Primer conmutador&lt;br&gt;&lt;/i&gt;&lt;i style=&quot;line-height: 18.2px;&quot;&gt;Iterando: Cada uno&lt;/i&gt;&lt;i&gt;&lt;br&gt;&lt;/i&gt;&lt;/span&gt;&lt;div&gt;&lt;span style=&quot;font-size: 14px; font-weight: 400; line-height: 130%;&quot;&gt;&lt;i&gt;Hasta:Último conmutador&lt;/i&gt;&lt;/span&gt;&lt;/div&gt;" style="text;whiteSpace=wrap;html=1;align=left;fontStyle=1;fontSize=10;" vertex="1" parent="1">
          <mxGeometry x="123.99999999999997" y="-886.75" width="190.19" height="60" as="geometry" />
        </mxCell>
        <mxCell id="3ua0rzF7ZVXCf0AmxjDX-18" value="&lt;span style=&quot;font-size: 14px;&quot;&gt;&lt;b&gt;Función de mitigación&lt;/b&gt;&lt;/span&gt;" style="text;html=1;align=center;verticalAlign=middle;whiteSpace=wrap;rounded=0;fontFamily=Helvetica;fontSize=26;fontColor=default;" vertex="1" parent="1">
          <mxGeometry x="151.39999999999995" y="-906.75" width="169.6" height="20" as="geometry" />
        </mxCell>
        <mxCell id="3ua0rzF7ZVXCf0AmxjDX-19" value="" style="edgeStyle=orthogonalEdgeStyle;rounded=0;orthogonalLoop=1;jettySize=auto;html=1;" edge="1" parent="1" source="3ua0rzF7ZVXCf0AmxjDX-20" target="3ua0rzF7ZVXCf0AmxjDX-25">
          <mxGeometry relative="1" as="geometry" />
        </mxCell>
        <mxCell id="3ua0rzF7ZVXCf0AmxjDX-20" value="" style="rounded=0;whiteSpace=wrap;html=1;" vertex="1" parent="1">
          <mxGeometry x="122.78999999999999" y="-789.75" width="220" height="80" as="geometry" />
        </mxCell>
        <mxCell id="3ua0rzF7ZVXCf0AmxjDX-21" value="&lt;span style=&quot;font-size: 14px;&quot;&gt;&lt;b&gt;Proceso 1&lt;/b&gt;&lt;/span&gt;" style="text;html=1;align=center;verticalAlign=middle;whiteSpace=wrap;rounded=0;fontFamily=Helvetica;fontSize=26;fontColor=default;" vertex="1" parent="1">
          <mxGeometry x="195.39000000000001" y="-785.75" width="74.79" height="20" as="geometry" />
        </mxCell>
        <mxCell id="3ua0rzF7ZVXCf0AmxjDX-22" value="&lt;span style=&quot;font-size: 14px; font-weight: 400;&quot;&gt;&lt;i style=&quot;line-height: 130%;&quot;&gt;Identifica el datapath_id del conmutador&lt;/i&gt;&lt;/span&gt;" style="text;whiteSpace=wrap;html=1;align=center;fontStyle=1;fontSize=10;" vertex="1" parent="1">
          <mxGeometry x="142.79" y="-765.75" width="180" height="46" as="geometry" />
        </mxCell>
        <mxCell id="3ua0rzF7ZVXCf0AmxjDX-23" style="edgeStyle=orthogonalEdgeStyle;rounded=0;orthogonalLoop=1;jettySize=auto;html=1;entryX=0.5;entryY=0;entryDx=0;entryDy=0;" edge="1" parent="1" source="3ua0rzF7ZVXCf0AmxjDX-24" target="3ua0rzF7ZVXCf0AmxjDX-29">
          <mxGeometry relative="1" as="geometry" />
        </mxCell>
        <mxCell id="3ua0rzF7ZVXCf0AmxjDX-24" value="" style="rounded=0;whiteSpace=wrap;html=1;" vertex="1" parent="1">
          <mxGeometry x="92.78999999999999" y="-677.75" width="280" height="120" as="geometry" />
        </mxCell>
        <mxCell id="3ua0rzF7ZVXCf0AmxjDX-25" value="&lt;span style=&quot;font-size: 14px;&quot;&gt;&lt;b&gt;Proceso 2&lt;/b&gt;&lt;/span&gt;" style="text;html=1;align=center;verticalAlign=middle;whiteSpace=wrap;rounded=0;fontFamily=Helvetica;fontSize=26;fontColor=default;" vertex="1" parent="1">
          <mxGeometry x="190.4" y="-677.75" width="84.81" height="20" as="geometry" />
        </mxCell>
        <mxCell id="3ua0rzF7ZVXCf0AmxjDX-26" value="&lt;span style=&quot;font-size: 14px; font-weight: 400;&quot;&gt;&lt;i&gt;Establece nueva regla de flujo:&lt;/i&gt;&lt;/span&gt;&lt;div style=&quot;text-align: left;&quot;&gt;&lt;span style=&quot;font-size: 14px; font-weight: 400;&quot;&gt;&lt;i&gt;&lt;br&gt;&lt;/i&gt;&lt;/span&gt;&lt;/div&gt;" style="text;whiteSpace=wrap;html=1;align=center;fontStyle=1;fontSize=10;" vertex="1" parent="1">
          <mxGeometry x="123.99999999999997" y="-657.75" width="220" height="46" as="geometry" />
        </mxCell>
        <mxCell id="3ua0rzF7ZVXCf0AmxjDX-27" value="&lt;div style=&quot;&quot;&gt;&lt;span style=&quot;font-size: 14px; font-weight: 400;&quot;&gt;&lt;i&gt;Prioridad: 150&lt;br&gt;Coincidencia: MAC Origen del Atacante&lt;/i&gt;&lt;/span&gt;&lt;/div&gt;&lt;div style=&quot;&quot;&gt;&lt;span style=&quot;font-size: 14px; font-weight: 400;&quot;&gt;&lt;i&gt;Acción: Denegar el tráfico&lt;/i&gt;&lt;/span&gt;&lt;/div&gt;&lt;div style=&quot;&quot;&gt;&lt;span style=&quot;font-size: 14px; font-weight: 400;&quot;&gt;&lt;i&gt;Tabla de flujos: 0&lt;/i&gt;&lt;/span&gt;&lt;/div&gt;" style="text;whiteSpace=wrap;html=1;align=left;fontStyle=1;fontSize=10;" vertex="1" parent="1">
          <mxGeometry x="100.29999999999998" y="-636.75" width="263" height="71" as="geometry" />
        </mxCell>
        <mxCell id="3ua0rzF7ZVXCf0AmxjDX-28" style="edgeStyle=orthogonalEdgeStyle;rounded=0;orthogonalLoop=1;jettySize=auto;html=1;entryX=0;entryY=0.5;entryDx=0;entryDy=0;" edge="1" parent="1" source="3ua0rzF7ZVXCf0AmxjDX-29" target="3ua0rzF7ZVXCf0AmxjDX-16">
          <mxGeometry relative="1" as="geometry">
            <Array as="points">
              <mxPoint x="-27.21" y="-489.75" />
              <mxPoint x="-27.21" y="-866.75" />
            </Array>
          </mxGeometry>
        </mxCell>
        <mxCell id="3ua0rzF7ZVXCf0AmxjDX-29" value="" style="rounded=0;whiteSpace=wrap;html=1;" vertex="1" parent="1">
          <mxGeometry x="122.79999999999998" y="-529.75" width="220" height="80" as="geometry" />
        </mxCell>
        <mxCell id="3ua0rzF7ZVXCf0AmxjDX-30" value="&lt;span style=&quot;font-size: 14px;&quot;&gt;&lt;b&gt;Proceso 3&lt;/b&gt;&lt;/span&gt;" style="text;html=1;align=center;verticalAlign=middle;whiteSpace=wrap;rounded=0;fontFamily=Helvetica;fontSize=26;fontColor=default;" vertex="1" parent="1">
          <mxGeometry x="195.4" y="-525.75" width="74.79" height="20" as="geometry" />
        </mxCell>
        <mxCell id="3ua0rzF7ZVXCf0AmxjDX-31" value="&lt;span style=&quot;font-size: 14px; font-weight: 400;&quot;&gt;&lt;i style=&quot;line-height: 130%;&quot;&gt;Anadir nueva regla de flujo al conmutador SDN&lt;/i&gt;&lt;/span&gt;" style="text;whiteSpace=wrap;html=1;align=center;fontStyle=1;fontSize=10;" vertex="1" parent="1">
          <mxGeometry x="122.79999999999998" y="-505.75" width="220" height="46" as="geometry" />
        </mxCell>
        <mxCell id="3ua0rzF7ZVXCf0AmxjDX-32" value="" style="edgeStyle=orthogonalEdgeStyle;rounded=0;orthogonalLoop=1;jettySize=auto;html=1;" edge="1" parent="1" source="3ua0rzF7ZVXCf0AmxjDX-33" target="3ua0rzF7ZVXCf0AmxjDX-37">
          <mxGeometry relative="1" as="geometry" />
        </mxCell>
        <mxCell id="3ua0rzF7ZVXCf0AmxjDX-33" value="" style="rounded=0;whiteSpace=wrap;html=1;" vertex="1" parent="1">
          <mxGeometry x="442.79" y="-906.75" width="220" height="80" as="geometry" />
        </mxCell>
        <mxCell id="3ua0rzF7ZVXCf0AmxjDX-34" value="&lt;span style=&quot;font-size: 14px; font-weight: 400;&quot;&gt;&lt;i style=&quot;line-height: 130%;&quot;&gt;Mitgación implementada en&amp;nbsp; todos los conmutadores&lt;/i&gt;&lt;/span&gt;" style="text;whiteSpace=wrap;html=1;align=center;fontStyle=1;fontSize=10;" vertex="1" parent="1">
          <mxGeometry x="457.79" y="-882.75" width="190" height="46" as="geometry" />
        </mxCell>
        <mxCell id="3ua0rzF7ZVXCf0AmxjDX-35" value="&lt;span style=&quot;font-size: 14px;&quot;&gt;&lt;b&gt;Función de mitigación&lt;/b&gt;&lt;/span&gt;" style="text;html=1;align=center;verticalAlign=middle;whiteSpace=wrap;rounded=0;fontFamily=Helvetica;fontSize=26;fontColor=default;" vertex="1" parent="1">
          <mxGeometry x="467.98999999999995" y="-902.75" width="169.6" height="20" as="geometry" />
        </mxCell>
        <mxCell id="3ua0rzF7ZVXCf0AmxjDX-46" style="edgeStyle=orthogonalEdgeStyle;rounded=0;orthogonalLoop=1;jettySize=auto;html=1;entryX=0.5;entryY=0;entryDx=0;entryDy=0;" edge="1" parent="1" source="3ua0rzF7ZVXCf0AmxjDX-37" target="gdCvDjqRngSQcII96v-0-26">
          <mxGeometry relative="1" as="geometry">
            <Array as="points">
              <mxPoint x="553" y="-390" />
              <mxPoint x="-880" y="-390" />
              <mxPoint x="-880" y="-700" />
              <mxPoint x="-1065" y="-700" />
            </Array>
          </mxGeometry>
        </mxCell>
        <mxCell id="3ua0rzF7ZVXCf0AmxjDX-37" value="" style="rounded=0;whiteSpace=wrap;html=1;" vertex="1" parent="1">
          <mxGeometry x="432.79" y="-782.75" width="240" height="93" as="geometry" />
        </mxCell>
        <mxCell id="3ua0rzF7ZVXCf0AmxjDX-38" value="&lt;span style=&quot;font-size: 14px;&quot;&gt;&lt;b&gt;Conmutadores SDN&lt;/b&gt;&lt;/span&gt;" style="text;html=1;align=center;verticalAlign=middle;whiteSpace=wrap;rounded=0;fontFamily=Helvetica;fontSize=26;fontColor=default;" vertex="1" parent="1">
          <mxGeometry x="467.98999999999995" y="-780.75" width="169.6" height="20" as="geometry" />
        </mxCell>
        <mxCell id="3ua0rzF7ZVXCf0AmxjDX-39" value="&lt;span style=&quot;font-size: 14px; font-weight: 400;&quot;&gt;&lt;i&gt;Rechazan todo tipo de tráfico generado por los atacantes en base a su MAC&lt;/i&gt;&lt;/span&gt;" style="text;whiteSpace=wrap;html=1;align=center;fontStyle=1;fontSize=10;" vertex="1" parent="1">
          <mxGeometry x="437.79" y="-755.75" width="230" height="56" as="geometry" />
        </mxCell>
        <mxCell id="3ua0rzF7ZVXCf0AmxjDX-42" value="&lt;i&gt;no&lt;/i&gt;" style="text;html=1;align=center;verticalAlign=middle;whiteSpace=wrap;rounded=0;" vertex="1" parent="1">
          <mxGeometry x="-1170.01" y="-1013.75" width="40" height="20" as="geometry" />
        </mxCell>
        <mxCell id="3ua0rzF7ZVXCf0AmxjDX-43" value="&lt;i&gt;si&lt;/i&gt;" style="text;html=1;align=center;verticalAlign=middle;whiteSpace=wrap;rounded=0;" vertex="1" parent="1">
          <mxGeometry x="-970" y="-1013.75" width="23.78" height="20" as="geometry" />
        </mxCell>
      </root>
    </mxGraphModel>
  </diagram>
</mxfile>
